<mxfile host="Electron" modified="2024-02-20T02:26:23.316Z" agent="Mozilla/5.0 (Windows NT 10.0; Win64; x64) AppleWebKit/537.36 (KHTML, like Gecko) draw.io/21.6.8 Chrome/114.0.5735.289 Electron/25.5.0 Safari/537.36" etag="Bp4o8g4loDKQ78AcVG-t" version="21.6.8" type="device">
  <diagram name="Page-1" id="dyMkaFpgLYHN4XWTXTaq">
    <mxGraphModel dx="489" dy="1802" grid="1" gridSize="10" guides="1" tooltips="1" connect="1" arrows="1" fold="1" page="1" pageScale="1" pageWidth="850" pageHeight="1100" math="0" shadow="0">
      <root>
        <mxCell id="0" />
        <mxCell id="1" parent="0" />
        <mxCell id="8UlRJDcUWpYmVw1ALDYJ-2" value="" style="endArrow=classic;html=1;rounded=0;startArrow=oval;startFill=1;entryX=0.5;entryY=0;entryDx=0;entryDy=0;" edge="1" parent="1" target="8UlRJDcUWpYmVw1ALDYJ-3">
          <mxGeometry width="50" height="50" relative="1" as="geometry">
            <mxPoint x="550" y="-1000" as="sourcePoint" />
            <mxPoint x="550" y="-940" as="targetPoint" />
          </mxGeometry>
        </mxCell>
        <mxCell id="8UlRJDcUWpYmVw1ALDYJ-5" value="" style="edgeStyle=orthogonalEdgeStyle;rounded=0;orthogonalLoop=1;jettySize=auto;html=1;" edge="1" parent="1" source="8UlRJDcUWpYmVw1ALDYJ-3" target="8UlRJDcUWpYmVw1ALDYJ-4">
          <mxGeometry relative="1" as="geometry" />
        </mxCell>
        <mxCell id="8UlRJDcUWpYmVw1ALDYJ-3" value="Browse Product" style="rounded=1;whiteSpace=wrap;html=1;fillColor=#d5e8d4;strokeColor=#82b366;" vertex="1" parent="1">
          <mxGeometry x="490" y="-940" width="120" height="60" as="geometry" />
        </mxCell>
        <mxCell id="8UlRJDcUWpYmVw1ALDYJ-7" value="" style="edgeStyle=orthogonalEdgeStyle;rounded=0;orthogonalLoop=1;jettySize=auto;html=1;" edge="1" parent="1" source="8UlRJDcUWpYmVw1ALDYJ-4" target="8UlRJDcUWpYmVw1ALDYJ-6">
          <mxGeometry relative="1" as="geometry" />
        </mxCell>
        <mxCell id="8UlRJDcUWpYmVw1ALDYJ-4" value="Land on online store home page" style="rounded=1;whiteSpace=wrap;html=1;" vertex="1" parent="1">
          <mxGeometry x="490" y="-840" width="120" height="60" as="geometry" />
        </mxCell>
        <mxCell id="8UlRJDcUWpYmVw1ALDYJ-9" value="" style="edgeStyle=orthogonalEdgeStyle;rounded=0;orthogonalLoop=1;jettySize=auto;html=1;" edge="1" parent="1" source="8UlRJDcUWpYmVw1ALDYJ-6" target="8UlRJDcUWpYmVw1ALDYJ-8">
          <mxGeometry relative="1" as="geometry" />
        </mxCell>
        <mxCell id="8UlRJDcUWpYmVw1ALDYJ-6" value="Ultilize search bar, filters to discover relevant products" style="rounded=1;whiteSpace=wrap;html=1;" vertex="1" parent="1">
          <mxGeometry x="490" y="-730" width="120" height="60" as="geometry" />
        </mxCell>
        <mxCell id="8UlRJDcUWpYmVw1ALDYJ-11" value="" style="edgeStyle=orthogonalEdgeStyle;rounded=0;orthogonalLoop=1;jettySize=auto;html=1;" edge="1" parent="1" source="8UlRJDcUWpYmVw1ALDYJ-8" target="8UlRJDcUWpYmVw1ALDYJ-10">
          <mxGeometry relative="1" as="geometry" />
        </mxCell>
        <mxCell id="8UlRJDcUWpYmVw1ALDYJ-8" value="Click on product to view detailed information" style="rounded=1;whiteSpace=wrap;html=1;" vertex="1" parent="1">
          <mxGeometry x="490" y="-630" width="120" height="60" as="geometry" />
        </mxCell>
        <mxCell id="8UlRJDcUWpYmVw1ALDYJ-13" value="" style="edgeStyle=orthogonalEdgeStyle;rounded=0;orthogonalLoop=1;jettySize=auto;html=1;" edge="1" parent="1" source="8UlRJDcUWpYmVw1ALDYJ-10" target="8UlRJDcUWpYmVw1ALDYJ-12">
          <mxGeometry relative="1" as="geometry" />
        </mxCell>
        <mxCell id="8UlRJDcUWpYmVw1ALDYJ-10" value="Access personalized recommendations" style="rounded=1;whiteSpace=wrap;html=1;" vertex="1" parent="1">
          <mxGeometry x="490" y="-530" width="120" height="60" as="geometry" />
        </mxCell>
        <mxCell id="8UlRJDcUWpYmVw1ALDYJ-15" value="" style="edgeStyle=orthogonalEdgeStyle;rounded=0;orthogonalLoop=1;jettySize=auto;html=1;" edge="1" parent="1" source="8UlRJDcUWpYmVw1ALDYJ-12" target="8UlRJDcUWpYmVw1ALDYJ-14">
          <mxGeometry relative="1" as="geometry" />
        </mxCell>
        <mxCell id="8UlRJDcUWpYmVw1ALDYJ-12" value="Decides to add the product to cart" style="rounded=1;whiteSpace=wrap;html=1;" vertex="1" parent="1">
          <mxGeometry x="490" y="-430" width="120" height="60" as="geometry" />
        </mxCell>
        <mxCell id="8UlRJDcUWpYmVw1ALDYJ-14" value="Close event" style="rounded=1;whiteSpace=wrap;html=1;fillColor=#f8cecc;strokeColor=#b85450;" vertex="1" parent="1">
          <mxGeometry x="490" y="-320" width="120" height="60" as="geometry" />
        </mxCell>
        <mxCell id="8UlRJDcUWpYmVw1ALDYJ-16" value="" style="endArrow=oval;html=1;rounded=0;exitX=0.5;exitY=1;exitDx=0;exitDy=0;endFill=1;" edge="1" parent="1" source="8UlRJDcUWpYmVw1ALDYJ-14">
          <mxGeometry width="50" height="50" relative="1" as="geometry">
            <mxPoint x="560" y="-160" as="sourcePoint" />
            <mxPoint x="550" y="-190" as="targetPoint" />
          </mxGeometry>
        </mxCell>
      </root>
    </mxGraphModel>
  </diagram>
</mxfile>
